# xmcd
#
# Track frame offsets:
#   150
#   13338
#   24804
#   37876
#   49533
#   59137
#   76103
#   87609
#   101593
#   116386
#   126134
#   139262
#   152376
#   171341
#   186100
#   197625
#   216797
#   238232
#   251114
#   272448
#   287270
#   307702
#   322432
#   334949
#
# Disc length: 4651 seconds
#
# Revision: 0
# Processed by: cddbd v1.5.2PL0 Copyright (c) Steve Scherf et al.
# Submitted via: uFREEDB ActiveX Control 1.5
#
DISCID=51122918
DTITLE=mega star - mega star
DYEAR=1900
DGENRE=mega star
TTITLE0=mega star1
TTITLE1=mega star2
TTITLE2=mega star3
TTITLE3=mega star4
TTITLE4=mega star5
TTITLE5=mega star6
TTITLE6=mega star7
TTITLE7=mega star8
TTITLE8=mega star9
TTITLE9=mega star10
TTITLE10=mega star11
TTITLE11=mega star12
TTITLE12=mega star13
TTITLE13=mega star14
TTITLE14=mega star15
TTITLE15=mega star16
TTITLE16=mega star17
TTITLE17=mega star18
TTITLE18=mega star19
TTITLE19=mega star20
TTITLE20=mega star21
TTITLE21=mega star22
TTITLE22=mega star23
TTITLE23=mega star24
EXTD=
EXTT0=
EXTT1=
EXTT2=
EXTT3=
EXTT4=
EXTT5=
EXTT6=
EXTT7=
EXTT8=
EXTT9=
EXTT10=
EXTT11=
EXTT12=
EXTT13=
EXTT14=
EXTT15=
EXTT16=
EXTT17=
EXTT18=
EXTT19=
EXTT20=
EXTT21=
EXTT22=
EXTT23=
PLAYORDER=
